<svg xmlns="http://www.w3.org/2000/svg" xmlns:xlink="http://www.w3.org/1999/xlink" width="188" zoomAndPan="magnify" viewBox="0 0 141 45.749998" height="61" preserveAspectRatio="xMidYMid meet" version="1.0"><defs><clipPath id="id1"><path d="M 36 40 L 139 40 L 139 45.5 L 36 45.5 Z M 36 40 " clip-rule="nonzero"/></clipPath><clipPath id="id2"><path d="M 0.953125 0.429688 L 33.9375 0.429688 L 33.9375 45.160156 L 0.953125 45.160156 Z M 0.953125 0.429688 " clip-rule="nonzero"/></clipPath></defs><path fill="#000000" d="M 48.992188 20.726562 L 49.230469 20.71875 C 51.769531 20.898438 46.941406 29.222656 44.882812 29.867188 C 44.785156 29.902344 44.921875 30.035156 45.1875 30.027344 C 45.519531 30.019531 46.085938 29.875 46.839844 29.257812 C 48.910156 27.675781 51.269531 23.914062 51.042969 21.25 C 50.90625 19.648438 49.898438 19.269531 48.53125 19.300781 C 44.523438 19.386719 39.917969 24.292969 37.761719 29.421875 C 35.855469 34.070312 36.027344 38.878906 39.421875 40.007812 C 39.824219 40.097656 40.230469 40.191406 40.695312 40.179688 C 43.570312 40.121094 46.78125 37.175781 48.566406 35 C 48.667969 34.898438 48.957031 34.558594 48.757812 34.460938 C 48.691406 34.429688 48.589844 34.398438 48.523438 34.398438 C 48.320312 34.402344 48.125 34.609375 47.960938 34.746094 C 46.394531 36.515625 43.875 38.808594 41.472656 38.859375 C 40.535156 38.882812 39.757812 38.53125 39.277344 37.871094 C 35.667969 33.074219 44.417969 20.824219 48.992188 20.726562 Z M 48.992188 20.726562 " fill-opacity="0.2" fill-rule="nonzero"/><path fill="#000000" d="M 53.421875 23.132812 C 53.289062 23.136719 53.222656 23.207031 53.0625 23.410156 C 52.21875 24.632812 51.136719 27.058594 51.335938 28.59375 C 51.375 28.792969 51.441406 28.890625 51.476562 28.890625 C 51.507812 28.890625 51.539062 28.820312 51.636719 28.683594 C 52.574219 27.261719 53.445312 25.804688 54.417969 24.417969 C 54.484375 24.28125 54.679688 24.109375 54.574219 23.914062 C 54.433594 23.511719 53.921875 23.125 53.421875 23.132812 Z M 53.609375 31.78125 C 53.609375 31.78125 53.574219 31.785156 53.542969 31.851562 C 52.214844 33.753906 50.851562 35.683594 49.050781 37.160156 C 48.816406 37.296875 48.71875 37.367188 48.585938 37.371094 C 48.550781 37.371094 48.550781 37.371094 48.519531 37.339844 C 48.078125 37.113281 49.003906 35.191406 49.132812 34.886719 C 49.773438 33.535156 50.539062 32.082031 51.316406 30.863281 L 51.347656 30.796875 C 51.703125 30.121094 50.992188 29.769531 50.488281 29.542969 C 50.285156 29.484375 50.152344 29.417969 50.050781 29.421875 C 49.484375 29.433594 47.265625 35.058594 46.949219 35.871094 C 46.539062 37.046875 47.398438 38.164062 48.335938 38.144531 C 49.667969 38.117188 52.300781 34.652344 53.046875 33.566406 C 53.300781 33.09375 53.625 32.617188 53.949219 32.144531 C 53.878906 31.910156 53.773438 31.78125 53.609375 31.78125 Z M 53.609375 31.78125 " fill-opacity="0.2" fill-rule="nonzero"/><path fill="#000000" d="M 59.464844 29.152344 C 59.125 28.824219 58.6875 28.703125 58.253906 28.710938 C 57.785156 28.886719 52.925781 35.640625 52.40625 36.453125 C 52.726562 35.8125 53.085938 35.304688 53.335938 34.695312 C 54.230469 32.875 54.238281 33.070312 55.132812 31.25 C 55.328125 30.914062 55.457031 30.742188 55.183594 30.445312 L 55.113281 30.382812 C 54.808594 30.089844 54.371094 29.929688 53.96875 29.941406 C 53.46875 29.949219 53.234375 30.054688 53.046875 30.527344 C 51.832031 33.09375 51.441406 33.535156 50.5625 36.226562 C 50.253906 37.269531 50.433594 37.898438 51.410156 38.347656 C 51.582031 38.410156 51.75 38.507812 51.847656 38.503906 C 52.050781 38.5 52.144531 38.363281 52.273438 38.128906 C 53.761719 35.753906 55.449219 33.515625 57.171875 31.304688 C 56.5 32.554688 54.429688 37.410156 56.746094 37.863281 C 56.84375 37.894531 56.914062 37.890625 57.015625 37.890625 C 58.917969 37.851562 61.605469 34.050781 62.578125 32.589844 C 62.738281 32.289062 62.933594 32.050781 63.03125 31.878906 C 62.957031 31.648438 62.789062 31.519531 62.6875 31.523438 C 62.65625 31.523438 62.621094 31.558594 62.621094 31.558594 C 62.558594 31.65625 62.136719 32.199219 61.648438 32.910156 L 61.585938 33.015625 L 61.554688 33.050781 C 60.671875 34.171875 59.1875 36.441406 57.886719 36.667969 C 56.421875 36.867188 59.273438 31.125 59.621094 30.285156 L 59.652344 30.183594 C 59.8125 29.78125 59.800781 29.414062 59.464844 29.152344 Z M 59.464844 29.152344 " fill-opacity="0.2" fill-rule="nonzero"/><path fill="#000000" d="M 61.699219 38.492188 C 64.074219 38.4375 66.308594 35.183594 67.503906 33.453125 C 67.925781 32.808594 68.25 32.300781 68.441406 32.03125 C 68.4375 31.761719 68.234375 31.667969 68.101562 31.667969 C 68.070312 31.671875 68.035156 31.671875 68.035156 31.703125 C 66.742188 33.570312 64.050781 37.335938 61.609375 37.390625 C 60.640625 37.3125 60.816406 36.105469 61.355469 34.722656 C 61.558594 34.984375 61.929688 35.109375 62.332031 35.101562 C 63.464844 35.042969 64.796875 33.3125 65.207031 32.265625 L 65.207031 32.199219 C 65.304688 32.03125 65.332031 31.828125 65.394531 31.597656 C 65.574219 30.523438 64.785156 29.605469 63.75 29.628906 C 63.382812 29.636719 62.984375 29.742188 62.585938 30.019531 C 60.546875 31.433594 58.128906 35.496094 60.152344 37.824219 C 60.53125 38.316406 61.070312 38.503906 61.699219 38.492188 Z M 64.277344 30.953125 C 64.410156 30.949219 64.511719 30.980469 64.582031 31.078125 C 64.652344 31.246094 64.625 31.445312 64.5625 31.714844 C 64.085938 32.925781 62.613281 34.328125 61.945312 34.339844 C 61.78125 34.347656 61.675781 34.28125 61.609375 34.117188 C 62.410156 32.53125 63.644531 30.964844 64.277344 30.953125 Z M 64.277344 30.953125 " fill-opacity="0.2" fill-rule="nonzero"/><path fill="#000000" d="M 75.347656 36.257812 L 75.34375 36.15625 C 75.972656 34.140625 76.796875 32.316406 77.761719 30.460938 C 78.113281 29.71875 77.003906 29.339844 76.464844 29.320312 C 76.398438 29.320312 76.367188 29.320312 76.335938 29.355469 C 75.273438 29.644531 73.011719 33.203125 72.332031 34.21875 C 72.234375 34.320312 72.203125 34.457031 72.167969 34.457031 C 72.167969 34.457031 72.203125 34.390625 72.230469 34.21875 C 72.992188 32.398438 73.925781 30.675781 74.722656 28.886719 L 74.753906 28.820312 C 74.910156 28.382812 74.902344 28.015625 74.597656 27.722656 C 74.355469 27.492188 73.886719 27.269531 73.519531 27.277344 C 73.484375 27.28125 73.382812 27.28125 73.351562 27.3125 C 72.890625 27.492188 67.480469 35.324219 66.894531 36.238281 L 69.523438 31.039062 C 69.683594 30.699219 69.816406 30.566406 69.574219 30.238281 L 69.507812 30.203125 C 69.199219 29.875 68.796875 29.75 68.328125 29.761719 C 67.859375 29.769531 67.59375 29.878906 67.402344 30.316406 C 66.257812 32.914062 66 33.320312 65.089844 36.042969 C 64.933594 36.582031 64.8125 37.1875 65.191406 37.648438 C 65.429688 37.910156 66.105469 38.296875 66.472656 38.253906 C 66.675781 38.25 66.894531 37.742188 67.027344 37.574219 C 68.640625 35 70.425781 32.457031 72.242188 30.078125 C 71.503906 31.464844 70.929688 32.777344 70.527344 34.125 C 70.402344 34.628906 70.28125 35.230469 70.527344 35.761719 C 70.632812 36.09375 71.042969 36.519531 71.410156 36.542969 C 71.613281 36.503906 71.675781 36.40625 71.742188 36.304688 C 72.84375 34.640625 74.011719 33.082031 75.179688 31.484375 C 75.242188 31.417969 75.273438 31.316406 75.273438 31.316406 C 75.308594 31.316406 75.277344 31.417969 75.214844 31.515625 C 74.644531 32.933594 74.105469 34.347656 73.804688 35.859375 C 73.714844 36.363281 73.730469 37.128906 74.273438 37.484375 C 74.472656 37.578125 74.644531 37.675781 74.84375 37.671875 C 76.8125 37.628906 79.660156 33.324219 80.757812 31.566406 C 80.683594 31.332031 80.582031 31.203125 80.449219 31.203125 C 80.417969 31.203125 80.382812 31.203125 80.351562 31.269531 C 80.285156 31.339844 79.703125 32.1875 79.023438 33.140625 C 78.632812 33.648438 76.125 36.742188 75.390625 36.757812 C 75.292969 36.761719 75.257812 36.625 75.347656 36.257812 Z M 75.347656 36.257812 " fill-opacity="0.2" fill-rule="nonzero"/><path fill="#000000" d="M 83.878906 35.339844 C 83.808594 35.140625 83.832031 34.804688 83.988281 34.265625 C 84.105469 33.460938 84.507812 31.984375 85.164062 31.433594 C 85.425781 31.261719 85.390625 31.230469 85.1875 31 C 84.84375 30.605469 84.476562 30.445312 84.140625 30.457031 C 84.007812 30.457031 83.875 30.492188 83.707031 30.566406 C 83.957031 29.589844 84.097656 28.519531 83.347656 27.734375 C 83.144531 27.535156 82.835938 27.34375 82.503906 27.351562 C 82.136719 27.359375 81.738281 27.566406 81.28125 27.980469 C 79.316406 29.65625 75.71875 36.449219 78.382812 37.59375 C 78.585938 37.691406 78.722656 37.753906 78.921875 37.75 C 78.988281 37.75 79.054688 37.714844 79.121094 37.714844 C 80.015625 37.292969 81.175781 35.296875 82.136719 33.640625 C 82.140625 33.703125 82.140625 33.738281 82.109375 33.839844 C 81.996094 34.746094 81.917969 35.847656 82.601562 36.46875 C 82.804688 36.664062 83.042969 36.792969 83.339844 36.789062 C 85.144531 36.746094 87.753906 32.28125 88.402344 31.296875 C 88.292969 30.933594 88.191406 30.9375 87.925781 30.941406 C 87.765625 31.179688 84.949219 35.414062 84.082031 35.433594 C 84.015625 35.433594 83.949219 35.402344 83.878906 35.339844 Z M 82.390625 29.691406 C 82.652344 29.453125 82.847656 29.28125 83.011719 29.277344 C 83.28125 29.273438 83.359375 29.804688 83.25 30.910156 C 82.953125 31.148438 82.792969 31.488281 82.632812 31.824219 C 81.4375 33.554688 79.925781 36.226562 79.421875 36.238281 C 78.945312 35.847656 81.117188 31.125 82.390625 29.691406 Z M 82.390625 29.691406 " fill-opacity="0.2" fill-rule="nonzero"/><path fill="#000000" d="M 100.699219 25.386719 C 100.699219 25.453125 100.667969 25.488281 100.667969 25.558594 C 100.671875 25.722656 100.84375 25.917969 101.078125 25.914062 C 101.8125 25.898438 102.253906 23.113281 102.242188 22.550781 C 102.21875 21.644531 101.722656 20.15625 100.117188 20.191406 C 95.34375 20.292969 88.628906 30.992188 88.726562 35.570312 C 88.761719 37.105469 89.839844 39.183594 92.308594 39.132812 C 96.117188 39.050781 100.164062 33.148438 100.410156 30.636719 C 100.878906 30.527344 101.410156 30.515625 101.875 30.441406 C 102.140625 30.367188 102.238281 30.234375 102.234375 30.0625 C 102.230469 29.863281 102.015625 29.234375 101.714844 29.175781 C 101.648438 29.144531 101.214844 29.152344 101.113281 29.15625 C 98.808594 29.203125 95.132812 30.652344 93.054688 31.867188 C 92.890625 31.96875 92.695312 32.109375 92.59375 32.210938 C 92.433594 32.347656 92.402344 32.550781 92.40625 32.683594 C 92.410156 32.917969 92.484375 33.28125 92.785156 33.273438 C 92.820312 33.273438 92.917969 33.273438 93.050781 33.136719 C 94.464844 32.171875 97.488281 31.269531 99.378906 30.863281 C 98.648438 32.546875 94.625 38.046875 92.125 38.101562 C 90.820312 38.128906 90.582031 36.394531 90.566406 35.660156 C 90.507812 33.023438 92.375 29.707031 93.898438 27.574219 C 94.707031 26.386719 98.347656 21.695312 100.386719 21.652344 C 101.121094 21.636719 101.371094 22.632812 101.382812 23.101562 C 101.402344 23.902344 101.050781 24.644531 100.699219 25.386719 Z M 100.699219 25.386719 " fill-opacity="0.2" fill-rule="nonzero"/><path fill="#000000" d="M 102.230469 37.613281 C 104.601562 37.5625 106.835938 34.308594 108.035156 32.578125 C 108.457031 31.933594 108.78125 31.425781 108.972656 31.15625 C 108.964844 30.886719 108.765625 30.792969 108.628906 30.792969 C 108.597656 30.796875 108.5625 30.796875 108.5625 30.828125 C 107.269531 32.695312 104.578125 36.460938 102.140625 36.515625 C 101.167969 36.433594 101.34375 35.230469 101.882812 33.847656 C 102.085938 34.109375 102.460938 34.234375 102.859375 34.226562 C 103.992188 34.167969 105.328125 32.4375 105.738281 31.390625 L 105.734375 31.324219 C 105.832031 31.15625 105.863281 30.953125 105.925781 30.722656 C 106.101562 29.644531 105.3125 28.726562 104.277344 28.75 C 103.910156 28.761719 103.511719 28.867188 103.117188 29.144531 C 101.078125 30.558594 98.660156 34.621094 100.679688 36.949219 C 101.058594 37.441406 101.597656 37.628906 102.230469 37.613281 Z M 104.808594 30.078125 C 104.941406 30.074219 105.042969 30.105469 105.113281 30.203125 C 105.179688 30.367188 105.152344 30.570312 105.089844 30.835938 C 104.617188 32.050781 103.140625 33.453125 102.476562 33.464844 C 102.308594 33.472656 102.207031 33.40625 102.136719 33.242188 C 102.9375 31.652344 104.171875 30.089844 104.808594 30.078125 Z M 104.808594 30.078125 " fill-opacity="0.2" fill-rule="nonzero"/><path fill="#000000" d="M 111.617188 26.824219 C 111.515625 26.6875 111.34375 26.5625 111.207031 26.429688 C 111.660156 25.652344 112.011719 24.910156 112.230469 24.269531 C 112.417969 23.695312 112.15625 22.199219 111.386719 22.285156 C 109.988281 22.414062 108.472656 24.953125 110.175781 26.585938 C 109.179688 28.34375 108.058594 30.609375 107.347656 31.625 C 107.316406 31.691406 107.355469 32.023438 107.589844 32.019531 C 107.65625 32.019531 107.753906 31.984375 107.953125 31.847656 C 108.699219 30.863281 109.367188 29.308594 110.757812 27.175781 C 110.859375 27.308594 110.964844 27.4375 110.996094 27.539062 C 111.800781 28.988281 107.671875 34.257812 107.792969 36.792969 C 107.808594 37.558594 108.203125 38.789062 109.171875 38.765625 C 109.269531 38.765625 109.335938 38.730469 109.4375 38.695312 C 111.1875 37.789062 114.792969 31.632812 115.25 30.988281 C 115.3125 30.886719 115.242188 30.71875 115.109375 30.65625 C 115.042969 30.621094 115.007812 30.589844 114.941406 30.589844 C 114.871094 30.59375 114.839844 30.628906 114.742188 30.695312 C 113.996094 31.746094 110.285156 37.742188 109.3125 37.59375 C 109.804688 35.644531 111.765625 32.128906 112.207031 30.816406 C 112.679688 29.570312 113.039062 27.695312 111.617188 26.824219 Z M 111.316406 23.6875 C 111.484375 23.683594 111.523438 23.882812 111.332031 24.421875 C 111.207031 24.859375 110.984375 25.332031 110.757812 25.703125 C 110.140625 24.917969 111.015625 23.695312 111.316406 23.6875 Z M 111.316406 23.6875 " fill-opacity="0.2" fill-rule="nonzero"/><path fill="#000000" d="M 114.351562 37.351562 C 116.722656 37.300781 118.957031 34.046875 120.152344 32.316406 C 120.574219 31.671875 120.898438 31.164062 121.089844 30.894531 C 121.085938 30.625 120.882812 30.53125 120.75 30.53125 C 120.71875 30.535156 120.683594 30.535156 120.683594 30.566406 C 119.390625 32.433594 116.699219 36.199219 114.257812 36.253906 C 113.289062 36.171875 113.464844 34.96875 114.003906 33.585938 C 114.207031 33.847656 114.578125 33.972656 114.980469 33.964844 C 116.113281 33.90625 117.445312 32.175781 117.855469 31.128906 L 117.855469 31.0625 C 117.953125 30.894531 117.984375 30.691406 118.042969 30.460938 C 118.222656 29.382812 117.433594 28.464844 116.398438 28.488281 C 116.03125 28.5 115.632812 28.605469 115.234375 28.882812 C 113.195312 30.296875 110.777344 34.359375 112.800781 36.6875 C 113.179688 37.179688 113.71875 37.367188 114.351562 37.351562 Z M 116.929688 29.816406 C 117.058594 29.8125 117.160156 29.839844 117.230469 29.941406 C 117.300781 30.105469 117.273438 30.308594 117.210938 30.574219 C 116.734375 31.789062 115.261719 33.191406 114.59375 33.203125 C 114.429688 33.210938 114.328125 33.144531 114.257812 32.980469 C 115.058594 31.390625 116.292969 29.828125 116.929688 29.816406 Z M 116.929688 29.816406 " fill-opacity="0.2" fill-rule="nonzero"/><path fill="#000000" d="M 126.800781 27.699219 C 126.460938 27.371094 126.023438 27.246094 125.589844 27.253906 C 125.125 27.433594 120.261719 34.183594 119.742188 34.996094 C 120.0625 34.355469 120.421875 33.847656 120.675781 33.242188 C 121.570312 31.417969 121.574219 31.617188 122.46875 29.796875 C 122.664062 29.457031 122.792969 29.285156 122.519531 28.992188 L 122.453125 28.929688 C 122.144531 28.632812 121.707031 28.476562 121.308594 28.484375 C 120.804688 28.492188 120.574219 28.597656 120.382812 29.070312 C 119.167969 31.636719 118.777344 32.082031 117.902344 34.769531 C 117.589844 35.8125 117.769531 36.445312 118.75 36.890625 C 118.917969 36.957031 119.085938 37.050781 119.1875 37.050781 C 119.386719 37.046875 119.484375 36.910156 119.609375 36.671875 C 121.097656 34.300781 122.785156 32.058594 124.507812 29.851562 C 123.835938 31.101562 121.765625 35.957031 124.082031 36.40625 C 124.183594 36.441406 124.25 36.4375 124.351562 36.4375 C 126.253906 36.394531 128.941406 32.597656 129.914062 31.136719 C 130.074219 30.832031 130.269531 30.59375 130.367188 30.425781 C 130.292969 30.191406 130.125 30.066406 130.023438 30.066406 C 129.992188 30.066406 129.960938 30.101562 129.960938 30.101562 C 129.894531 30.203125 129.472656 30.746094 128.988281 31.457031 L 128.921875 31.558594 L 128.890625 31.59375 C 128.011719 32.714844 126.523438 34.984375 125.226562 35.214844 C 123.761719 35.414062 126.609375 29.671875 126.957031 28.828125 L 126.992188 28.730469 C 127.148438 28.324219 127.140625 27.957031 126.800781 27.699219 Z M 126.800781 27.699219 " fill-opacity="0.2" fill-rule="nonzero"/><path fill="#000000" d="M 125.625 25.785156 L 125.691406 25.785156 C 127.324219 25.582031 128.953125 25.378906 130.625 25.242188 C 128.898438 28.921875 127.035156 34.074219 126.519531 36.355469 C 126.304688 37.128906 126.082031 39.203125 127.28125 39.214844 C 127.679688 35.796875 130.671875 29.082031 132.957031 25.058594 C 134.390625 24.960938 135.792969 24.832031 137.15625 24.699219 C 138.054688 24.578125 138.390625 23.070312 137.691406 23.117188 C 136.457031 23.3125 135.128906 23.542969 133.796875 23.703125 C 134.246094 22.960938 134.671875 22.414062 134.996094 22.109375 C 135.324219 21.765625 134.804688 20.910156 133.835938 20.929688 C 133.636719 20.933594 133.433594 20.972656 133.167969 21.078125 C 132.742188 21.253906 132 22.472656 131.132812 24.128906 L 125.574219 25.015625 C 125.207031 25.09375 125.289062 25.792969 125.625 25.785156 Z M 125.625 25.785156 " fill-opacity="0.2" fill-rule="nonzero"/><path fill="#000000" d="M 134.40625 35.082031 C 134.398438 34.648438 133.988281 34.191406 133.320312 34.203125 C 132.65625 34.214844 131.910156 35.4375 131.921875 35.902344 C 131.933594 36.570312 132.34375 36.898438 133.042969 36.882812 C 133.746094 36.867188 134.425781 35.851562 134.40625 35.082031 Z M 134.40625 35.082031 " fill-opacity="0.2" fill-rule="nonzero"/><path fill="#000000" d="M 47.488281 19.28125 L 47.722656 19.277344 C 50.261719 19.457031 45.433594 27.777344 43.375 28.425781 C 43.277344 28.460938 43.414062 28.589844 43.679688 28.585938 C 44.011719 28.578125 44.578125 28.429688 45.332031 27.8125 C 47.40625 26.230469 49.761719 22.472656 49.539062 19.804688 C 49.402344 18.203125 48.390625 17.824219 47.023438 17.855469 C 43.015625 17.941406 38.410156 22.851562 36.253906 27.976562 C 34.347656 32.625 34.519531 37.433594 37.917969 38.566406 C 38.316406 38.65625 38.722656 38.75 39.1875 38.738281 C 42.0625 38.675781 45.273438 35.730469 47.0625 33.554688 C 47.160156 33.453125 47.453125 33.113281 47.25 33.015625 C 47.183594 32.984375 47.082031 32.953125 47.015625 32.957031 C 46.8125 32.957031 46.617188 33.164062 46.453125 33.300781 C 44.886719 35.070312 42.367188 37.363281 39.964844 37.417969 C 39.027344 37.4375 38.25 37.085938 37.769531 36.429688 C 34.160156 31.628906 42.914062 19.378906 47.488281 19.28125 Z M 47.488281 19.28125 " fill-opacity="1" fill-rule="nonzero"/><path fill="#000000" d="M 51.914062 21.691406 C 51.78125 21.691406 51.714844 21.761719 51.554688 21.96875 C 50.710938 23.1875 49.628906 25.613281 49.828125 27.148438 C 49.867188 27.347656 49.933594 27.449219 49.96875 27.445312 C 50 27.445312 50.03125 27.378906 50.128906 27.242188 C 51.066406 25.820312 51.9375 24.363281 52.910156 22.972656 C 52.976562 22.839844 53.171875 22.667969 53.066406 22.46875 C 52.925781 22.070312 52.414062 21.679688 51.914062 21.691406 Z M 52.101562 30.339844 C 52.101562 30.339844 52.066406 30.339844 52.039062 30.410156 C 50.707031 32.308594 49.34375 34.238281 47.542969 35.71875 C 47.308594 35.855469 47.210938 35.925781 47.078125 35.925781 C 47.042969 35.925781 47.042969 35.925781 47.011719 35.894531 C 46.570312 35.671875 47.5 33.746094 47.625 33.441406 C 48.265625 32.09375 49.035156 30.636719 49.808594 29.421875 L 49.839844 29.355469 C 50.195312 28.675781 49.484375 28.324219 48.980469 28.101562 C 48.777344 28.039062 48.644531 27.976562 48.542969 27.976562 C 47.976562 27.988281 45.757812 33.617188 45.441406 34.425781 C 45.035156 35.605469 45.894531 36.71875 46.828125 36.703125 C 48.164062 36.671875 50.792969 33.207031 51.539062 32.121094 C 51.796875 31.648438 52.117188 31.175781 52.441406 30.699219 C 52.371094 30.464844 52.265625 30.335938 52.101562 30.339844 Z M 52.101562 30.339844 " fill-opacity="1" fill-rule="nonzero"/><path fill="#000000" d="M 57.957031 27.710938 C 57.617188 27.378906 57.179688 27.257812 56.746094 27.265625 C 56.277344 27.445312 51.417969 34.195312 50.898438 35.007812 C 51.21875 34.367188 51.578125 33.859375 51.832031 33.25 C 52.726562 31.429688 52.730469 31.628906 53.625 29.808594 C 53.820312 29.46875 53.949219 29.296875 53.675781 29.003906 L 53.609375 28.9375 C 53.300781 28.644531 52.863281 28.488281 52.460938 28.496094 C 51.960938 28.503906 51.730469 28.609375 51.539062 29.082031 C 50.324219 31.648438 49.933594 32.089844 49.058594 34.78125 C 48.746094 35.824219 48.925781 36.457031 49.90625 36.902344 C 50.074219 36.964844 50.242188 37.0625 50.34375 37.058594 C 50.542969 37.054688 50.640625 36.917969 50.765625 36.683594 C 52.253906 34.3125 53.941406 32.070312 55.664062 29.863281 C 54.992188 31.113281 52.921875 35.964844 55.238281 36.417969 C 55.339844 36.449219 55.40625 36.449219 55.507812 36.449219 C 57.410156 36.40625 60.097656 32.605469 61.070312 31.148438 C 61.230469 30.84375 61.425781 30.605469 61.523438 30.4375 C 61.449219 30.203125 61.28125 30.074219 61.179688 30.078125 C 61.148438 30.078125 61.117188 30.113281 61.117188 30.113281 C 61.050781 30.210938 60.628906 30.757812 60.140625 31.46875 L 60.078125 31.570312 L 60.046875 31.605469 C 59.167969 32.726562 57.679688 34.996094 56.382812 35.222656 C 54.914062 35.425781 57.765625 29.679688 58.113281 28.839844 L 58.148438 28.742188 C 58.304688 28.335938 58.296875 27.96875 57.957031 27.710938 Z M 57.957031 27.710938 " fill-opacity="1" fill-rule="nonzero"/><path fill="#000000" d="M 60.195312 37.046875 C 62.566406 36.996094 64.800781 33.742188 65.996094 32.007812 C 66.417969 31.367188 66.742188 30.859375 66.933594 30.585938 C 66.929688 30.320312 66.726562 30.222656 66.59375 30.226562 C 66.5625 30.230469 66.527344 30.230469 66.527344 30.261719 C 65.234375 32.125 62.542969 35.894531 60.101562 35.945312 C 59.132812 35.867188 59.308594 34.660156 59.847656 33.28125 C 60.050781 33.542969 60.425781 33.667969 60.824219 33.660156 C 61.957031 33.601562 63.289062 31.871094 63.703125 30.824219 L 63.699219 30.757812 C 63.796875 30.585938 63.828125 30.386719 63.886719 30.152344 C 64.066406 29.078125 63.277344 28.160156 62.242188 28.183594 C 61.875 28.191406 61.476562 28.300781 61.078125 28.578125 C 59.039062 29.992188 56.621094 34.050781 58.644531 36.378906 C 59.023438 36.871094 59.5625 37.0625 60.195312 37.046875 Z M 62.773438 29.507812 C 62.902344 29.507812 63.003906 29.535156 63.074219 29.636719 C 63.144531 29.800781 63.117188 30.003906 63.054688 30.269531 C 62.578125 31.480469 61.105469 32.882812 60.4375 32.898438 C 60.273438 32.902344 60.171875 32.835938 60.101562 32.675781 C 60.902344 31.085938 62.136719 29.519531 62.773438 29.507812 Z M 62.773438 29.507812 " fill-opacity="1" fill-rule="nonzero"/><path fill="#000000" d="M 73.839844 34.8125 L 73.835938 34.714844 C 74.464844 32.695312 75.292969 30.875 76.253906 29.015625 C 76.605469 28.273438 75.496094 27.894531 74.960938 27.875 C 74.890625 27.875 74.859375 27.878906 74.828125 27.910156 C 73.765625 28.203125 71.503906 31.757812 70.824219 32.777344 C 70.726562 32.878906 70.695312 33.011719 70.664062 33.011719 C 70.664062 33.011719 70.695312 32.945312 70.722656 32.777344 C 71.488281 30.953125 72.417969 29.234375 73.214844 27.445312 L 73.246094 27.375 C 73.402344 26.941406 73.394531 26.574219 73.089844 26.277344 C 72.851562 26.046875 72.378906 25.828125 72.011719 25.832031 C 71.976562 25.835938 71.878906 25.835938 71.84375 25.871094 C 71.382812 26.046875 65.972656 33.878906 65.390625 34.796875 L 68.015625 29.59375 C 68.175781 29.257812 68.308594 29.121094 68.066406 28.792969 L 68 28.761719 C 67.691406 28.429688 67.289062 28.304688 66.820312 28.316406 C 66.351562 28.328125 66.089844 28.433594 65.894531 28.871094 C 64.75 31.46875 64.492188 31.875 63.582031 34.601562 C 63.425781 35.140625 63.304688 35.742188 63.683594 36.203125 C 63.921875 36.464844 64.597656 36.851562 64.964844 36.808594 C 65.167969 36.804688 65.390625 36.296875 65.519531 36.128906 C 67.132812 33.558594 68.917969 31.011719 70.734375 28.636719 C 69.996094 30.019531 69.425781 31.332031 69.019531 32.679688 C 68.898438 33.183594 68.773438 33.785156 69.023438 34.316406 C 69.125 34.648438 69.539062 35.074219 69.90625 35.097656 C 70.105469 35.058594 70.167969 34.960938 70.234375 34.859375 C 71.335938 33.199219 72.503906 31.636719 73.671875 30.039062 C 73.734375 29.972656 73.769531 29.871094 73.769531 29.871094 C 73.800781 29.871094 73.769531 29.972656 73.707031 30.070312 C 73.136719 31.488281 72.597656 32.902344 72.296875 34.414062 C 72.207031 34.917969 72.222656 35.683594 72.765625 36.039062 C 72.964844 36.136719 73.136719 36.230469 73.335938 36.230469 C 75.304688 36.183594 78.152344 31.882812 79.25 30.121094 C 79.179688 29.886719 79.074219 29.757812 78.941406 29.761719 C 78.910156 29.761719 78.875 29.761719 78.84375 29.828125 C 78.777344 29.898438 78.195312 30.746094 77.515625 31.695312 C 77.125 32.203125 74.617188 35.300781 73.882812 35.3125 C 73.785156 35.316406 73.75 35.183594 73.839844 34.8125 Z M 73.839844 34.8125 " fill-opacity="1" fill-rule="nonzero"/><path fill="#000000" d="M 82.375 33.894531 C 82.300781 33.695312 82.328125 33.363281 82.480469 32.824219 C 82.597656 32.019531 83 30.542969 83.660156 29.992188 C 83.921875 29.820312 83.886719 29.785156 83.683594 29.554688 C 83.339844 29.164062 82.96875 29.003906 82.632812 29.011719 C 82.503906 29.015625 82.367188 29.050781 82.203125 29.121094 C 82.449219 28.144531 82.59375 27.074219 81.839844 26.289062 C 81.636719 26.09375 81.332031 25.898438 81 25.90625 C 80.628906 25.914062 80.234375 26.125 79.773438 26.535156 C 77.808594 28.214844 74.214844 35.003906 76.875 36.152344 C 77.082031 36.246094 77.214844 36.3125 77.414062 36.308594 C 77.480469 36.304688 77.546875 36.269531 77.613281 36.269531 C 78.507812 35.851562 79.667969 33.855469 80.632812 32.195312 C 80.632812 32.261719 80.632812 32.296875 80.601562 32.398438 C 80.488281 33.300781 80.414062 34.40625 81.09375 35.027344 C 81.296875 35.222656 81.535156 35.347656 81.835938 35.34375 C 83.636719 35.300781 86.25 30.839844 86.894531 29.855469 C 86.789062 29.488281 86.6875 29.492188 86.421875 29.5 C 86.257812 29.734375 83.441406 33.972656 82.574219 33.992188 C 82.507812 33.992188 82.441406 33.960938 82.375 33.894531 Z M 80.882812 28.25 C 81.144531 28.007812 81.339844 27.835938 81.503906 27.835938 C 81.773438 27.828125 81.851562 28.359375 81.742188 29.464844 C 81.449219 29.707031 81.289062 30.042969 81.125 30.382812 C 79.929688 32.109375 78.417969 34.78125 77.917969 34.792969 C 77.4375 34.402344 79.609375 29.679688 80.882812 28.25 Z M 80.882812 28.25 " fill-opacity="1" fill-rule="nonzero"/><path fill="#000000" d="M 99.191406 23.945312 C 99.191406 24.011719 99.160156 24.046875 99.160156 24.113281 C 99.167969 24.277344 99.335938 24.472656 99.570312 24.472656 C 100.304688 24.453125 100.746094 21.671875 100.734375 21.105469 C 100.714844 20.203125 100.214844 18.710938 98.609375 18.746094 C 93.839844 18.847656 87.121094 29.550781 87.21875 34.125 C 87.253906 35.660156 88.332031 37.742188 90.800781 37.6875 C 94.609375 37.605469 98.65625 31.707031 98.902344 29.195312 C 99.371094 29.082031 99.902344 29.070312 100.371094 28.996094 C 100.632812 28.921875 100.730469 28.789062 100.726562 28.621094 C 100.726562 28.417969 100.507812 27.789062 100.210938 27.730469 C 100.140625 27.699219 99.707031 27.707031 99.605469 27.710938 C 97.300781 27.761719 93.625 29.207031 91.546875 30.421875 C 91.386719 30.527344 91.1875 30.664062 91.085938 30.769531 C 90.925781 30.90625 90.894531 31.105469 90.898438 31.238281 C 90.902344 31.472656 90.976562 31.835938 91.277344 31.832031 C 91.3125 31.832031 91.410156 31.828125 91.542969 31.691406 C 92.957031 30.726562 95.980469 29.828125 97.871094 29.417969 C 97.140625 31.101562 93.117188 36.605469 90.617188 36.65625 C 89.3125 36.683594 89.074219 34.953125 89.058594 34.21875 C 89 31.582031 90.867188 28.265625 92.390625 26.128906 C 93.199219 24.941406 96.839844 20.25 98.878906 20.207031 C 99.613281 20.195312 99.867188 21.191406 99.878906 21.65625 C 99.894531 22.457031 99.542969 23.199219 99.191406 23.945312 Z M 99.191406 23.945312 " fill-opacity="1" fill-rule="nonzero"/><path fill="#000000" d="M 100.722656 36.171875 C 103.09375 36.121094 105.328125 32.863281 106.527344 31.132812 C 106.949219 30.488281 107.273438 29.984375 107.464844 29.710938 C 107.460938 29.445312 107.257812 29.347656 107.125 29.351562 C 107.09375 29.355469 107.058594 29.355469 107.058594 29.386719 C 105.761719 31.25 103.070312 35.019531 100.632812 35.070312 C 99.664062 34.992188 99.839844 33.785156 100.375 32.40625 C 100.582031 32.667969 100.953125 32.792969 101.351562 32.78125 C 102.484375 32.726562 103.820312 30.992188 104.230469 29.949219 L 104.226562 29.882812 C 104.328125 29.710938 104.355469 29.511719 104.417969 29.277344 C 104.59375 28.203125 103.804688 27.285156 102.773438 27.308594 C 102.40625 27.316406 102.003906 27.425781 101.609375 27.703125 C 99.570312 29.113281 97.152344 33.175781 99.171875 35.503906 C 99.550781 35.996094 100.089844 36.1875 100.722656 36.171875 Z M 103.300781 28.632812 C 103.433594 28.632812 103.535156 28.660156 103.605469 28.757812 C 103.675781 28.925781 103.644531 29.125 103.585938 29.394531 C 103.109375 30.605469 101.636719 32.007812 100.96875 32.023438 C 100.800781 32.027344 100.699219 31.960938 100.628906 31.796875 C 101.429688 30.210938 102.667969 28.644531 103.300781 28.632812 Z M 103.300781 28.632812 " fill-opacity="1" fill-rule="nonzero"/><path fill="#000000" d="M 110.109375 25.378906 C 110.007812 25.246094 109.835938 25.117188 109.699219 24.984375 C 110.152344 24.207031 110.503906 23.464844 110.722656 22.828125 C 110.910156 22.253906 110.648438 20.753906 109.878906 20.839844 C 108.480469 20.96875 106.964844 23.507812 108.667969 25.144531 C 107.671875 26.898438 106.550781 29.164062 105.839844 30.179688 C 105.808594 30.25 105.847656 30.582031 106.082031 30.578125 C 106.148438 30.574219 106.246094 30.539062 106.445312 30.402344 C 107.191406 29.417969 107.859375 27.863281 109.25 25.730469 C 109.351562 25.863281 109.453125 25.992188 109.488281 26.09375 C 110.292969 27.542969 106.164062 32.8125 106.285156 35.351562 C 106.300781 36.117188 106.695312 37.347656 107.664062 37.324219 C 107.761719 37.324219 107.828125 37.289062 107.929688 37.25 C 109.679688 36.34375 113.285156 30.1875 113.742188 29.542969 C 113.804688 29.441406 113.734375 29.273438 113.601562 29.210938 C 113.535156 29.179688 113.5 29.148438 113.433594 29.148438 C 113.363281 29.148438 113.332031 29.183594 113.234375 29.25 C 112.488281 30.304688 108.777344 36.296875 107.804688 36.152344 C 108.296875 34.203125 110.257812 30.683594 110.699219 29.375 C 111.171875 28.125 111.53125 26.25 110.109375 25.378906 Z M 109.808594 22.242188 C 109.976562 22.242188 110.015625 22.4375 109.824219 22.976562 C 109.699219 23.414062 109.476562 23.886719 109.25 24.261719 C 108.632812 23.472656 109.507812 22.25 109.808594 22.242188 Z M 109.808594 22.242188 " fill-opacity="1" fill-rule="nonzero"/><path fill="#000000" d="M 112.839844 35.910156 C 115.214844 35.859375 117.449219 32.601562 118.644531 30.871094 C 119.066406 30.226562 119.390625 29.722656 119.582031 29.449219 C 119.578125 29.183594 119.375 29.085938 119.242188 29.089844 C 119.210938 29.09375 119.175781 29.09375 119.175781 29.125 C 117.882812 30.988281 115.191406 34.757812 112.75 34.808594 C 111.78125 34.730469 111.957031 33.523438 112.496094 32.140625 C 112.699219 32.40625 113.070312 32.53125 113.472656 32.519531 C 114.605469 32.464844 115.9375 30.730469 116.347656 29.6875 L 116.347656 29.621094 C 116.445312 29.449219 116.472656 29.25 116.535156 29.015625 C 116.714844 27.941406 115.925781 27.023438 114.890625 27.046875 C 114.523438 27.054688 114.125 27.164062 113.726562 27.441406 C 111.6875 28.851562 109.269531 32.914062 111.292969 35.242188 C 111.671875 35.734375 112.210938 35.925781 112.839844 35.910156 Z M 115.417969 28.371094 C 115.550781 28.371094 115.652344 28.398438 115.722656 28.496094 C 115.792969 28.664062 115.761719 28.863281 115.703125 29.132812 C 115.226562 30.34375 113.753906 31.746094 113.085938 31.761719 C 112.921875 31.765625 112.816406 31.699219 112.75 31.535156 C 113.550781 29.949219 114.785156 28.382812 115.417969 28.371094 Z M 115.417969 28.371094 " fill-opacity="1" fill-rule="nonzero"/><path fill="#000000" d="M 125.292969 26.253906 C 124.953125 25.925781 124.515625 25.800781 124.082031 25.8125 C 123.617188 25.988281 118.753906 32.738281 118.234375 33.550781 C 118.554688 32.910156 118.914062 32.40625 119.167969 31.796875 C 120.0625 29.972656 120.066406 30.171875 120.960938 28.351562 C 121.15625 28.011719 121.285156 27.839844 121.011719 27.546875 L 120.945312 27.484375 C 120.636719 27.1875 120.199219 27.03125 119.800781 27.039062 C 119.296875 27.050781 119.066406 27.152344 118.875 27.625 C 117.660156 30.191406 117.269531 30.636719 116.394531 33.324219 C 116.082031 34.367188 116.261719 35 117.242188 35.445312 C 117.410156 35.511719 117.578125 35.605469 117.679688 35.605469 C 117.878906 35.601562 117.976562 35.464844 118.105469 35.226562 C 119.589844 32.855469 121.28125 30.617188 123 28.40625 C 122.328125 29.65625 120.261719 34.511719 122.574219 34.964844 C 122.675781 34.996094 122.742188 34.992188 122.84375 34.992188 C 124.746094 34.953125 127.433594 31.152344 128.410156 29.691406 C 128.570312 29.390625 128.765625 29.148438 128.859375 28.980469 C 128.789062 28.746094 128.617188 28.621094 128.515625 28.621094 C 128.484375 28.621094 128.453125 28.65625 128.453125 28.65625 C 128.386719 28.757812 127.964844 29.300781 127.480469 30.011719 L 127.414062 30.113281 L 127.382812 30.148438 C 126.503906 31.269531 125.015625 33.542969 123.71875 33.769531 C 122.253906 33.96875 125.101562 28.226562 125.453125 27.382812 L 125.484375 27.285156 C 125.640625 26.878906 125.632812 26.511719 125.292969 26.253906 Z M 125.292969 26.253906 " fill-opacity="1" fill-rule="nonzero"/><path fill="#000000" d="M 124.117188 24.339844 L 124.183594 24.339844 C 125.816406 24.140625 127.445312 23.933594 129.117188 23.796875 C 127.390625 27.476562 125.53125 32.628906 125.011719 34.910156 C 124.796875 35.6875 124.574219 37.761719 125.773438 37.769531 C 126.171875 34.351562 129.164062 27.636719 131.449219 23.613281 C 132.882812 23.519531 134.285156 23.386719 135.652344 23.257812 C 136.546875 23.136719 136.882812 21.628906 136.183594 21.675781 C 134.953125 21.871094 133.621094 22.097656 132.289062 22.257812 C 132.742188 21.515625 133.164062 20.972656 133.488281 20.664062 C 133.816406 20.320312 133.296875 19.464844 132.328125 19.484375 C 132.128906 19.492188 131.925781 19.53125 131.664062 19.632812 C 131.234375 19.8125 130.492188 21.03125 129.625 22.683594 L 124.066406 23.574219 C 123.699219 23.648438 123.78125 24.347656 124.117188 24.339844 Z M 124.117188 24.339844 " fill-opacity="1" fill-rule="nonzero"/><path fill="#000000" d="M 132.898438 33.636719 C 132.890625 33.203125 132.480469 32.746094 131.8125 32.757812 C 131.144531 32.773438 130.402344 33.992188 130.410156 34.460938 C 130.425781 35.128906 130.835938 35.453125 131.535156 35.4375 C 132.238281 35.425781 132.917969 34.40625 132.898438 33.636719 Z M 132.898438 33.636719 " fill-opacity="1" fill-rule="nonzero"/><g clip-path="url(#id1)"><path fill="#999999" d="M 37.230469 40.996094 L 137.816406 40.996094 C 138.261719 40.996094 138.617188 41.355469 138.617188 41.800781 L 138.617188 44.40625 C 138.617188 44.851562 138.261719 45.207031 137.816406 45.207031 L 37.230469 45.207031 C 36.789062 45.207031 36.429688 44.851562 36.429688 44.40625 L 36.429688 41.800781 C 36.429688 41.355469 36.789062 40.996094 37.230469 40.996094 " fill-opacity="0.2" fill-rule="nonzero"/></g><path fill="#000000" d="M 39.433594 43.539062 L 39.164062 43.539062 C 39.078125 43.695312 38.960938 43.820312 38.816406 43.910156 C 38.671875 44.003906 38.507812 44.050781 38.332031 44.050781 C 38.070312 44.050781 37.847656 43.953125 37.664062 43.757812 C 37.484375 43.574219 37.394531 43.347656 37.394531 43.082031 C 37.394531 42.816406 37.484375 42.589844 37.664062 42.402344 C 37.746094 42.316406 37.847656 42.246094 37.964844 42.195312 C 38.074219 42.140625 38.183594 42.113281 38.296875 42.113281 C 38.40625 42.113281 38.5 42.125 38.585938 42.148438 C 38.835938 42.230469 39.03125 42.378906 39.160156 42.617188 L 39.429688 42.617188 C 39.339844 42.390625 39.195312 42.210938 38.996094 42.070312 C 38.792969 41.933594 38.574219 41.863281 38.332031 41.863281 C 38 41.863281 37.722656 41.984375 37.492188 42.226562 C 37.382812 42.335938 37.300781 42.46875 37.242188 42.617188 C 37.175781 42.761719 37.152344 42.917969 37.152344 43.082031 C 37.152344 43.417969 37.261719 43.699219 37.492188 43.9375 C 37.722656 44.179688 38 44.300781 38.332031 44.300781 C 38.574219 44.300781 38.792969 44.230469 38.996094 44.089844 C 39.199219 43.949219 39.339844 43.769531 39.433594 43.539062 Z M 39.433594 43.539062 " fill-opacity="1" fill-rule="nonzero"/><path fill="#000000" d="M 42.375 43.480469 L 42.375 41.894531 L 42.132812 41.894531 L 42.132812 43.515625 C 42.132812 43.613281 42.113281 43.695312 42.078125 43.757812 C 41.976562 43.953125 41.78125 44.054688 41.492188 44.054688 C 41.304688 44.054688 41.15625 44.011719 41.042969 43.925781 C 40.914062 43.835938 40.851562 43.699219 40.851562 43.515625 L 40.851562 41.894531 L 40.609375 41.894531 L 40.609375 43.480469 C 40.609375 43.738281 40.691406 43.941406 40.859375 44.085938 C 41.015625 44.226562 41.226562 44.296875 41.492188 44.296875 C 41.753906 44.296875 41.964844 44.226562 42.125 44.085938 C 42.292969 43.941406 42.375 43.738281 42.375 43.480469 Z M 42.375 43.480469 " fill-opacity="1" fill-rule="nonzero"/><path fill="#000000" d="M 44.363281 43.148438 C 44.671875 43.222656 44.878906 43.304688 44.992188 43.394531 C 45.070312 43.457031 45.109375 43.539062 45.109375 43.632812 C 45.109375 43.730469 45.085938 43.8125 45.042969 43.871094 C 44.9375 44.015625 44.753906 44.085938 44.488281 44.085938 C 44.117188 44.085938 43.90625 43.960938 43.859375 43.710938 L 43.574219 43.710938 C 43.660156 44.109375 43.960938 44.3125 44.488281 44.3125 C 44.71875 44.3125 44.914062 44.261719 45.074219 44.15625 C 45.261719 44.035156 45.359375 43.855469 45.359375 43.617188 C 45.359375 43.421875 45.28125 43.273438 45.128906 43.167969 C 45.019531 43.089844 44.84375 43.019531 44.605469 42.957031 C 44.363281 42.894531 44.203125 42.839844 44.132812 42.804688 C 43.972656 42.722656 43.890625 42.609375 43.894531 42.464844 C 43.894531 42.390625 43.90625 42.320312 43.941406 42.273438 C 44.03125 42.136719 44.191406 42.070312 44.421875 42.070312 C 44.75 42.070312 44.933594 42.171875 44.980469 42.375 L 45.246094 42.375 C 45.160156 42.035156 44.882812 41.859375 44.421875 41.859375 C 44.214844 41.859375 44.03125 41.914062 43.875 42.023438 C 43.71875 42.136719 43.640625 42.300781 43.640625 42.527344 C 43.640625 42.828125 43.882812 43.039062 44.363281 43.148438 Z M 44.363281 43.148438 " fill-opacity="1" fill-rule="nonzero"/><path fill="#000000" d="M 46.382812 42.113281 L 46.957031 42.113281 L 46.957031 44.261719 L 47.199219 44.261719 L 47.199219 42.113281 L 47.777344 42.113281 L 47.777344 41.886719 L 46.382812 41.886719 Z M 46.382812 42.113281 " fill-opacity="1" fill-rule="nonzero"/><path fill="#000000" d="M 51.058594 43.074219 C 51.058594 43.34375 50.960938 43.574219 50.773438 43.765625 C 50.582031 43.953125 50.351562 44.050781 50.082031 44.050781 C 49.8125 44.050781 49.585938 43.953125 49.394531 43.765625 C 49.203125 43.574219 49.109375 43.34375 49.109375 43.074219 C 49.109375 42.808594 49.203125 42.574219 49.394531 42.386719 C 49.585938 42.195312 49.8125 42.097656 50.082031 42.097656 C 50.351562 42.097656 50.582031 42.195312 50.773438 42.386719 C 50.960938 42.574219 51.058594 42.808594 51.058594 43.074219 Z M 51.304688 43.074219 C 51.304688 42.90625 51.269531 42.746094 51.203125 42.597656 C 51.144531 42.449219 51.054688 42.320312 50.941406 42.210938 C 50.832031 42.105469 50.703125 42.015625 50.558594 41.953125 C 50.40625 41.890625 50.25 41.855469 50.082031 41.855469 C 49.914062 41.855469 49.753906 41.890625 49.609375 41.953125 C 49.460938 42.015625 49.332031 42.105469 49.21875 42.210938 C 49.109375 42.320312 49.023438 42.449219 48.957031 42.597656 C 48.898438 42.746094 48.863281 42.90625 48.863281 43.074219 C 48.863281 43.238281 48.898438 43.398438 48.957031 43.546875 C 49.023438 43.699219 49.109375 43.824219 49.21875 43.9375 C 49.332031 44.050781 49.460938 44.136719 49.609375 44.199219 C 49.753906 44.261719 49.914062 44.292969 50.082031 44.292969 C 50.25 44.292969 50.40625 44.261719 50.558594 44.199219 C 50.703125 44.136719 50.832031 44.050781 50.941406 43.9375 C 51.054688 43.824219 51.144531 43.699219 51.203125 43.546875 C 51.269531 43.398438 51.304688 43.238281 51.304688 43.074219 Z M 51.304688 43.074219 " fill-opacity="1" fill-rule="nonzero"/><path fill="#000000" d="M 54.773438 44.265625 L 55.019531 44.265625 L 54.464844 41.738281 L 53.6875 43.765625 L 52.910156 41.738281 L 52.355469 44.265625 L 52.605469 44.265625 L 52.972656 42.574219 L 53.6875 44.40625 L 54.402344 42.574219 Z M 54.773438 44.265625 " fill-opacity="1" fill-rule="nonzero"/><path fill="#000000" d="M 60.15625 43.539062 L 59.886719 43.539062 C 59.804688 43.695312 59.6875 43.820312 59.542969 43.910156 C 59.394531 44.003906 59.230469 44.050781 59.058594 44.050781 C 58.796875 44.050781 58.570312 43.953125 58.386719 43.757812 C 58.207031 43.574219 58.121094 43.347656 58.121094 43.082031 C 58.121094 42.816406 58.207031 42.589844 58.386719 42.402344 C 58.472656 42.316406 58.570312 42.246094 58.6875 42.195312 C 58.796875 42.140625 58.910156 42.113281 59.023438 42.113281 C 59.128906 42.113281 59.222656 42.125 59.308594 42.148438 C 59.5625 42.230469 59.753906 42.378906 59.886719 42.617188 L 60.152344 42.617188 C 60.0625 42.390625 59.921875 42.210938 59.71875 42.070312 C 59.519531 41.933594 59.296875 41.863281 59.058594 41.863281 C 58.726562 41.863281 58.445312 41.984375 58.214844 42.226562 C 58.109375 42.335938 58.023438 42.46875 57.964844 42.617188 C 57.902344 42.761719 57.875 42.917969 57.875 43.082031 C 57.875 43.417969 57.984375 43.699219 58.214844 43.9375 C 58.445312 44.179688 58.726562 44.300781 59.058594 44.300781 C 59.296875 44.300781 59.519531 44.230469 59.722656 44.089844 C 59.921875 43.949219 60.066406 43.769531 60.15625 43.539062 Z M 60.15625 43.539062 " fill-opacity="1" fill-rule="nonzero"/><path fill="#000000" d="M 61.628906 44.265625 L 61.628906 41.894531 L 61.382812 41.894531 L 61.382812 44.265625 Z M 61.628906 44.265625 " fill-opacity="1" fill-rule="nonzero"/><path fill="#000000" d="M 63.257812 42.515625 L 64.589844 44.410156 L 64.589844 41.894531 L 64.34375 41.894531 L 64.34375 43.636719 L 63.015625 41.742188 L 63.015625 44.265625 L 63.257812 44.265625 Z M 63.257812 42.515625 " fill-opacity="1" fill-rule="nonzero"/><path fill="#000000" d="M 67.386719 44.265625 L 67.386719 44.039062 L 66.21875 44.039062 L 66.21875 43.191406 L 67.351562 43.191406 L 67.351562 42.964844 L 66.21875 42.964844 L 66.21875 42.121094 L 67.386719 42.121094 L 67.386719 41.894531 L 65.976562 41.894531 L 65.976562 44.265625 Z M 67.386719 44.265625 " fill-opacity="1" fill-rule="nonzero"/><path fill="#000000" d="M 70.957031 44.265625 L 71.203125 44.265625 L 70.652344 41.738281 L 69.875 43.765625 L 69.09375 41.738281 L 68.542969 44.265625 L 68.792969 44.265625 L 69.160156 42.574219 L 69.875 44.40625 L 70.585938 42.574219 Z M 70.957031 44.265625 " fill-opacity="1" fill-rule="nonzero"/><path fill="#000000" d="M 72.746094 43.394531 L 73.175781 42.300781 L 73.605469 43.394531 Z M 74.21875 44.265625 L 73.175781 41.730469 L 72.132812 44.265625 L 72.398438 44.265625 L 72.652344 43.617188 L 73.695312 43.617188 L 73.953125 44.265625 Z M 74.21875 44.265625 " fill-opacity="1" fill-rule="nonzero"/><path fill="#000000" d="M 79.367188 44.265625 L 79.613281 44.265625 L 79.0625 41.738281 L 78.285156 43.765625 L 77.503906 41.738281 L 76.953125 44.265625 L 77.203125 44.265625 L 77.570312 42.574219 L 78.285156 44.40625 L 78.996094 42.574219 Z M 79.367188 44.265625 " fill-opacity="1" fill-rule="nonzero"/><path fill="#000000" d="M 81.15625 43.394531 L 81.589844 42.300781 L 82.015625 43.394531 Z M 82.628906 44.265625 L 81.589844 41.730469 L 80.546875 44.265625 L 80.808594 44.265625 L 81.0625 43.617188 L 82.105469 43.617188 L 82.363281 44.265625 Z M 82.628906 44.265625 " fill-opacity="1" fill-rule="nonzero"/><path fill="#000000" d="M 84.03125 42.515625 L 85.363281 44.410156 L 85.363281 41.894531 L 85.117188 41.894531 L 85.117188 43.636719 L 83.789062 41.742188 L 83.789062 44.265625 L 84.03125 44.265625 Z M 84.03125 42.515625 " fill-opacity="1" fill-rule="nonzero"/><path fill="#000000" d="M 87.132812 43.394531 L 87.5625 42.300781 L 87.992188 43.394531 Z M 88.605469 44.265625 L 87.5625 41.730469 L 86.519531 44.265625 L 86.785156 44.265625 L 87.039062 43.617188 L 88.082031 43.617188 L 88.339844 44.265625 Z M 88.605469 44.265625 " fill-opacity="1" fill-rule="nonzero"/><path fill="#000000" d="M 92.101562 43.15625 L 90.867188 43.15625 L 90.867188 43.367188 L 91.832031 43.367188 C 91.757812 43.574219 91.636719 43.742188 91.460938 43.863281 C 91.285156 43.988281 91.089844 44.050781 90.878906 44.050781 C 90.605469 44.050781 90.375 43.953125 90.183594 43.765625 C 89.996094 43.570312 89.902344 43.339844 89.902344 43.066406 C 89.902344 42.800781 89.996094 42.570312 90.1875 42.378906 C 90.375 42.191406 90.605469 42.09375 90.878906 42.09375 C 91.078125 42.09375 91.265625 42.148438 91.429688 42.265625 C 91.597656 42.378906 91.714844 42.53125 91.792969 42.722656 L 92.050781 42.722656 C 91.96875 42.460938 91.820312 42.253906 91.601562 42.09375 C 91.386719 41.933594 91.136719 41.847656 90.855469 41.847656 C 90.699219 41.847656 90.546875 41.882812 90.402344 41.945312 C 90.253906 42.007812 90.125 42.09375 90.011719 42.207031 C 89.902344 42.320312 89.8125 42.449219 89.75 42.59375 C 89.6875 42.746094 89.65625 42.90625 89.65625 43.074219 C 89.65625 43.238281 89.6875 43.398438 89.75 43.546875 C 89.8125 43.699219 89.902344 43.824219 90.011719 43.9375 C 90.125 44.050781 90.253906 44.136719 90.402344 44.199219 C 90.546875 44.261719 90.707031 44.292969 90.878906 44.292969 C 91.164062 44.292969 91.421875 44.203125 91.652344 44.019531 C 91.882812 43.828125 92.027344 43.59375 92.078125 43.304688 Z M 92.101562 43.15625 " fill-opacity="1" fill-rule="nonzero"/><path fill="#000000" d="M 94.792969 44.265625 L 94.792969 44.039062 L 93.628906 44.039062 L 93.628906 43.191406 L 94.757812 43.191406 L 94.757812 42.964844 L 93.628906 42.964844 L 93.628906 42.121094 L 94.792969 42.121094 L 94.792969 41.894531 L 93.382812 41.894531 L 93.382812 44.265625 Z M 94.792969 44.265625 " fill-opacity="1" fill-rule="nonzero"/><path fill="#000000" d="M 98.363281 44.265625 L 98.613281 44.265625 L 98.058594 41.738281 L 97.28125 43.765625 L 96.503906 41.738281 L 95.949219 44.265625 L 96.199219 44.265625 L 96.566406 42.574219 L 97.28125 44.40625 L 97.996094 42.574219 Z M 98.363281 44.265625 " fill-opacity="1" fill-rule="nonzero"/><path fill="#000000" d="M 101.179688 44.265625 L 101.179688 44.039062 L 100.015625 44.039062 L 100.015625 43.191406 L 101.144531 43.191406 L 101.144531 42.964844 L 100.015625 42.964844 L 100.015625 42.121094 L 101.179688 42.121094 L 101.179688 41.894531 L 99.769531 41.894531 L 99.769531 44.265625 Z M 101.179688 44.265625 " fill-opacity="1" fill-rule="nonzero"/><path fill="#000000" d="M 102.808594 42.515625 L 104.140625 44.410156 L 104.140625 41.894531 L 103.894531 41.894531 L 103.894531 43.636719 L 102.5625 41.742188 L 102.5625 44.265625 L 102.808594 44.265625 Z M 102.808594 42.515625 " fill-opacity="1" fill-rule="nonzero"/><path fill="#000000" d="M 105.332031 42.113281 L 105.910156 42.113281 L 105.910156 44.261719 L 106.152344 44.261719 L 106.152344 42.113281 L 106.730469 42.113281 L 106.730469 41.886719 L 105.332031 41.886719 Z M 105.332031 42.113281 " fill-opacity="1" fill-rule="nonzero"/><path fill="#000000" d="M 110.109375 43.394531 L 110.539062 42.300781 L 110.96875 43.394531 Z M 111.582031 44.265625 L 110.539062 41.730469 L 109.496094 44.265625 L 109.761719 44.265625 L 110.015625 43.617188 L 111.058594 43.617188 L 111.316406 44.265625 Z M 111.582031 44.265625 " fill-opacity="1" fill-rule="nonzero"/><path fill="#000000" d="M 112.984375 43.089844 L 112.984375 42.125 L 113.535156 42.125 C 113.679688 42.125 113.792969 42.171875 113.878906 42.261719 C 113.964844 42.351562 114.011719 42.460938 114.011719 42.601562 C 114.011719 42.746094 113.964844 42.859375 113.871094 42.953125 C 113.78125 43.042969 113.667969 43.089844 113.535156 43.089844 Z M 114.25 42.609375 C 114.25 42.398438 114.175781 42.230469 114.03125 42.09375 C 113.882812 41.960938 113.710938 41.894531 113.5 41.894531 L 112.738281 41.894531 L 112.738281 44.265625 L 112.984375 44.265625 L 112.984375 43.328125 L 113.5 43.328125 C 113.710938 43.328125 113.886719 43.261719 114.03125 43.128906 C 114.175781 42.988281 114.25 42.816406 114.25 42.609375 Z M 114.25 42.609375 " fill-opacity="1" fill-rule="nonzero"/><path fill="#000000" d="M 115.691406 43.089844 L 115.691406 42.125 L 116.242188 42.125 C 116.382812 42.125 116.496094 42.171875 116.585938 42.261719 C 116.667969 42.351562 116.714844 42.460938 116.714844 42.601562 C 116.714844 42.746094 116.667969 42.859375 116.578125 42.953125 C 116.488281 43.042969 116.375 43.089844 116.242188 43.089844 Z M 116.957031 42.609375 C 116.957031 42.398438 116.882812 42.230469 116.738281 42.09375 C 116.589844 41.960938 116.417969 41.894531 116.207031 41.894531 L 115.445312 41.894531 L 115.445312 44.265625 L 115.691406 44.265625 L 115.691406 43.328125 L 116.207031 43.328125 C 116.417969 43.328125 116.59375 43.261719 116.738281 43.128906 C 116.882812 42.988281 116.957031 42.816406 116.957031 42.609375 Z M 116.957031 42.609375 " fill-opacity="1" fill-rule="nonzero"/><path fill="#000000" d="M 118.398438 44.019531 L 118.398438 41.894531 L 118.152344 41.894531 L 118.152344 44.265625 L 119.246094 44.265625 L 119.246094 44.019531 Z M 118.398438 44.019531 " fill-opacity="1" fill-rule="nonzero"/><path fill="#000000" d="M 120.683594 44.265625 L 120.683594 41.894531 L 120.4375 41.894531 L 120.4375 44.265625 Z M 120.683594 44.265625 " fill-opacity="1" fill-rule="nonzero"/><path fill="#000000" d="M 124.242188 43.539062 L 123.976562 43.539062 C 123.890625 43.695312 123.773438 43.820312 123.628906 43.910156 C 123.484375 44.003906 123.320312 44.050781 123.144531 44.050781 C 122.882812 44.050781 122.660156 43.953125 122.476562 43.757812 C 122.292969 43.574219 122.207031 43.347656 122.207031 43.082031 C 122.207031 42.816406 122.292969 42.589844 122.476562 42.402344 C 122.558594 42.316406 122.660156 42.246094 122.773438 42.195312 C 122.886719 42.140625 122.996094 42.113281 123.109375 42.113281 C 123.21875 42.113281 123.3125 42.125 123.394531 42.148438 C 123.648438 42.230469 123.839844 42.378906 123.972656 42.617188 L 124.242188 42.617188 C 124.148438 42.390625 124.007812 42.210938 123.804688 42.070312 C 123.605469 41.933594 123.382812 41.863281 123.144531 41.863281 C 122.8125 41.863281 122.53125 41.984375 122.304688 42.226562 C 122.195312 42.335938 122.109375 42.46875 122.050781 42.617188 C 121.988281 42.761719 121.960938 42.917969 121.960938 43.082031 C 121.960938 43.417969 122.074219 43.699219 122.304688 43.9375 C 122.53125 44.179688 122.8125 44.300781 123.144531 44.300781 C 123.382812 44.300781 123.605469 44.230469 123.808594 44.089844 C 124.011719 43.949219 124.152344 43.769531 124.242188 43.539062 Z M 124.242188 43.539062 " fill-opacity="1" fill-rule="nonzero"/><path fill="#000000" d="M 125.855469 43.394531 L 126.289062 42.300781 L 126.714844 43.394531 Z M 127.328125 44.265625 L 126.289062 41.730469 L 125.246094 44.265625 L 125.507812 44.265625 L 125.761719 43.617188 L 126.804688 43.617188 L 127.0625 44.265625 Z M 127.328125 44.265625 " fill-opacity="1" fill-rule="nonzero"/><path fill="#000000" d="M 128.292969 42.113281 L 128.871094 42.113281 L 128.871094 44.261719 L 129.113281 44.261719 L 129.113281 42.113281 L 129.6875 42.113281 L 129.6875 41.886719 L 128.292969 41.886719 Z M 128.292969 42.113281 " fill-opacity="1" fill-rule="nonzero"/><path fill="#000000" d="M 131.125 44.265625 L 131.125 41.894531 L 130.882812 41.894531 L 130.882812 44.265625 Z M 131.125 44.265625 " fill-opacity="1" fill-rule="nonzero"/><path fill="#000000" d="M 134.601562 43.074219 C 134.601562 43.34375 134.5 43.574219 134.316406 43.765625 C 134.121094 43.953125 133.890625 44.050781 133.625 44.050781 C 133.355469 44.050781 133.125 43.953125 132.9375 43.765625 C 132.746094 43.574219 132.652344 43.34375 132.652344 43.074219 C 132.652344 42.808594 132.746094 42.574219 132.9375 42.386719 C 133.125 42.195312 133.355469 42.097656 133.625 42.097656 C 133.890625 42.097656 134.121094 42.195312 134.316406 42.386719 C 134.5 42.574219 134.601562 42.808594 134.601562 43.074219 Z M 134.84375 43.074219 C 134.84375 42.90625 134.808594 42.746094 134.746094 42.597656 C 134.683594 42.449219 134.597656 42.320312 134.484375 42.210938 C 134.371094 42.105469 134.246094 42.015625 134.097656 41.953125 C 133.949219 41.890625 133.789062 41.855469 133.625 41.855469 C 133.457031 41.855469 133.296875 41.890625 133.148438 41.953125 C 133.003906 42.015625 132.871094 42.105469 132.761719 42.210938 C 132.652344 42.320312 132.5625 42.449219 132.5 42.597656 C 132.4375 42.746094 132.40625 42.90625 132.40625 43.074219 C 132.40625 43.238281 132.4375 43.398438 132.5 43.546875 C 132.5625 43.699219 132.652344 43.824219 132.761719 43.9375 C 132.871094 44.050781 133.003906 44.136719 133.148438 44.199219 C 133.296875 44.261719 133.457031 44.292969 133.625 44.292969 C 133.789062 44.292969 133.949219 44.261719 134.097656 44.199219 C 134.246094 44.136719 134.371094 44.050781 134.484375 43.9375 C 134.597656 43.824219 134.683594 43.699219 134.746094 43.546875 C 134.808594 43.398438 134.84375 43.238281 134.84375 43.074219 Z M 134.84375 43.074219 " fill-opacity="1" fill-rule="nonzero"/><path fill="#000000" d="M 136.371094 42.515625 L 137.699219 44.410156 L 137.699219 41.894531 L 137.457031 41.894531 L 137.457031 43.636719 L 136.125 41.742188 L 136.125 44.265625 L 136.371094 44.265625 Z M 136.371094 42.515625 " fill-opacity="1" fill-rule="nonzero"/><g clip-path="url(#id2)"><path fill="#000000" d="M 32.792969 24.367188 L 31.433594 24.367188 L 31.433594 1.558594 C 31.433594 0.9375 30.925781 0.429688 30.304688 0.429688 C 29.679688 0.429688 29.171875 0.9375 29.171875 1.558594 L 29.171875 3.351562 C 28.9375 3.519531 28.050781 4.003906 25.304688 4.390625 C 23.097656 4.703125 20.242188 4.875 17.273438 4.875 C 14.304688 4.875 11.457031 4.703125 9.25 4.390625 C 6.5 4.003906 5.617188 3.519531 5.378906 3.351562 L 5.378906 1.558594 C 5.378906 0.9375 4.871094 0.429688 4.246094 0.429688 C 3.625 0.429688 3.117188 0.9375 3.117188 1.558594 L 3.117188 24.367188 L 2.089844 24.367188 C 1.46875 24.367188 0.960938 24.871094 0.960938 25.496094 L 0.960938 29.792969 C 0.960938 30.414062 1.46875 30.921875 2.089844 30.921875 L 3.964844 30.921875 L 15.132812 36.910156 L 3.714844 43.03125 C 3.164062 43.328125 2.957031 44.011719 3.25 44.5625 C 3.453125 44.941406 3.84375 45.160156 4.25 45.160156 C 4.425781 45.160156 4.609375 45.113281 4.78125 45.023438 L 17.527344 38.191406 L 30.269531 45.023438 C 30.4375 45.113281 30.621094 45.160156 30.800781 45.160156 C 31.203125 45.160156 31.59375 44.941406 31.796875 44.5625 C 32.09375 44.011719 31.886719 43.328125 31.335938 43.03125 L 19.917969 36.910156 L 31.085938 30.921875 L 32.792969 30.921875 C 33.414062 30.921875 33.921875 30.414062 33.921875 29.792969 L 33.921875 25.496094 C 33.921875 24.871094 33.414062 24.367188 32.792969 24.367188 Z M 31.660156 28.660156 L 30.808594 28.660156 C 30.808594 28.660156 30.804688 28.660156 30.800781 28.660156 L 4.246094 28.660156 C 4.242188 28.660156 4.242188 28.660156 4.238281 28.660156 L 3.222656 28.660156 L 3.222656 26.628906 L 31.660156 26.628906 Z M 17.273438 7.136719 C 20.75 7.136719 23.996094 6.914062 26.421875 6.507812 C 27.347656 6.351562 28.328125 6.148438 29.171875 5.84375 L 29.171875 12.816406 C 29.046875 12.957031 28.339844 13.5625 25.402344 14.066406 C 23.183594 14.445312 20.300781 14.652344 17.273438 14.652344 C 14.253906 14.652344 11.367188 14.445312 9.148438 14.066406 C 6.214844 13.5625 5.507812 12.957031 5.378906 12.816406 L 5.378906 5.84375 C 6.226562 6.148438 7.207031 6.351562 8.132812 6.507812 C 10.554688 6.914062 13.800781 7.136719 17.273438 7.136719 Z M 5.378906 15.410156 C 6.242188 15.765625 7.230469 15.996094 8.101562 16.167969 C 10.535156 16.648438 13.789062 16.914062 17.273438 16.914062 C 20.757812 16.914062 24.019531 16.648438 26.453125 16.167969 C 27.320312 15.996094 28.308594 15.765625 29.171875 15.410156 L 29.171875 24.367188 L 5.378906 24.367188 Z M 17.527344 35.628906 L 8.746094 30.921875 L 26.300781 30.921875 Z M 17.527344 35.628906 " fill-opacity="1" fill-rule="nonzero"/></g><path fill="#5b5959" d="M 3.222656 27.367188 L 3.222656 28.660156 L 4.238281 28.660156 C 4.242188 28.660156 4.242188 28.660156 4.246094 28.660156 L 30.800781 28.660156 C 30.804688 28.660156 30.808594 28.660156 30.808594 28.660156 L 31.660156 28.660156 L 31.660156 27.367188 Z M 3.222656 27.367188 " fill-opacity="1" fill-rule="nonzero"/><path fill="#5b5959" d="M 26.421875 7.570312 C 23.996094 7.976562 20.75 8.199219 17.273438 8.199219 C 13.800781 8.199219 10.554688 7.976562 8.132812 7.570312 C 7.207031 7.417969 6.226562 7.210938 5.378906 6.90625 L 5.378906 12.816406 C 5.507812 12.957031 6.214844 13.5625 9.148438 14.066406 C 11.367188 14.445312 14.253906 14.652344 17.273438 14.652344 C 20.300781 14.652344 23.183594 14.445312 25.402344 14.066406 C 28.339844 13.5625 29.046875 12.957031 29.171875 12.816406 L 29.171875 6.90625 C 28.328125 7.210938 27.347656 7.417969 26.421875 7.570312 Z M 26.421875 7.570312 " fill-opacity="1" fill-rule="nonzero"/></svg>